<?xml version="1.0" encoding="UTF-8"?>
<svg width="96" height="96" version="1.1" viewBox="0 0 25.4 25.4" xmlns="http://www.w3.org/2000/svg" xmlns:cc="http://creativecommons.org/ns#" xmlns:dc="http://purl.org/dc/elements/1.1/" xmlns:rdf="http://www.w3.org/1999/02/22-rdf-syntax-ns#">
 <metadata>
  <rdf:RDF>
   <cc:Work rdf:about="">
    <dc:format>image/svg+xml</dc:format>
    <dc:type rdf:resource="http://purl.org/dc/dcmitype/StillImage"/>
   </cc:Work>
  </rdf:RDF>
 </metadata>
 <path d="m23.177 23.177c-2.9635 2.9635-17.991 2.9635-20.955 0-2.9635-2.9635-2.9635-17.991 0-20.955 2.9635-2.9635 17.991-2.9635 20.955 0 2.9635 2.9635 2.9635 17.991 0 20.955z" fill="#fff"/>
 <g stroke-width=".26458px" aria-label="#!rsc">
  <path d="m7.4832 16.646v-1.0239h-0.54606l0.16577-1.2774h-1.2774l-0.16577 1.2774h-0.97511l0.16577-1.2774h-1.2774l-0.16577 1.2774h-0.70208v1.0239h0.56556l-0.24378 1.8722h-0.68257v1.0239h0.54606l-0.18527 1.3944h1.2774l0.18527-1.3944h0.97511l-0.18527 1.3944h1.2774l0.18527-1.3944h0.70208v-1.0239h-0.56556l0.24378-1.8722zm-2.2037 1.8722h-0.97511l0.24378-1.8722h0.97511z"/>
  <path d="m9.6187 14.179h-1.6382l0.19502 4.271h1.2481zm-0.81909 5.1583c-0.48755 0-0.8776 0.39979-0.8776 0.8776 0 0.48755 0.39004 0.88735 0.8776 0.88735 0.4973 0 0.88735-0.39979 0.88735-0.88735 0-0.4778-0.39004-0.8776-0.88735-0.8776z"/>
  <path d="m13.373 15.612c-0.59482 0-1.1019 0.42905-1.3359 1.1506l-0.13652-1.0044h-1.3359v5.1778h1.5407v-2.6035c0.17552-0.77033 0.4388-1.2286 1.0726-1.2286 0.16577 0 0.30228 0.02925 0.46805 0.06826l0.24378-1.4919c-0.17552-0.04875-0.32178-0.06826-0.51681-0.06826z"/>
  <path d="m16.181 15.592c-1.3066 0-2.116 0.69233-2.116 1.5797 0 0.79959 0.50706 1.3261 1.5309 1.6187 0.9361 0.26328 1.0921 0.37054 1.0921 0.72158 0 0.31203-0.28278 0.48755-0.75083 0.48755-0.50706 0-0.98486-0.20477-1.3749-0.50706l-0.75083 0.83859c0.50706 0.4583 1.2676 0.77033 2.1647 0.77033 1.2871 0 2.3012-0.63382 2.3012-1.7064 0-0.92635-0.57531-1.3554-1.5992-1.6479-0.92635-0.27303-1.0629-0.39004-1.0629-0.66307 0-0.23402 0.20477-0.39004 0.62407-0.39004 0.44855 0 0.8776 0.14627 1.2774 0.39979l0.56556-0.86784c-0.4778-0.39004-1.1506-0.63382-1.9015-0.63382z"/>
  <path d="m21.281 15.592c-1.5504 0-2.5353 1.1506-2.5353 2.7986 0 1.6382 0.97511 2.7108 2.5645 2.7108 0.71183 0 1.2676-0.23403 1.7454-0.61432l-0.67282-0.9556c-0.37054 0.23403-0.62407 0.35104-0.99461 0.35104-0.61432 0-1.0239-0.35104-1.0239-1.5017 0-1.1604 0.38029-1.6089 1.0434-1.6089 0.35104 0 0.65332 0.11701 0.98486 0.37054l0.66307-0.9166c-0.4973-0.4193-1.0531-0.63382-1.7747-0.63382z"/>
 </g>
 <g transform="matrix(2 0 0 2 -.41134 3.175)" fill="#676867" fill-rule="evenodd" stroke-width=".13229">
  <path d="m4.9596-1.0196c0.40797 2.8312 1.9272 4.5499 5.0239 4.691-2.918 1.1164-5.9253-1.5076-5.0239-4.691"/>
  <path d="m3.3407-0.52096c0.034969-0.00777 0.038854 0.015542 0.041445 0.041445 0.098431 1.8054 0.85998 3.1744 1.8689 4.1108 1.0089 0.93639 2.3636 1.6941 4.274 1.6604-3.5772 1.4247-7.337-1.9984-6.1856-5.8126"/>
 </g>
</svg>
