<?xml version="1.0" encoding="UTF-8"?>
<!-- Created with Inkscape (http://www.inkscape.org/) -->
<svg id="svg" width="96" height="96" version="1.1" viewBox="0 0 25.4 25.4" xmlns="http://www.w3.org/2000/svg">
 <defs id="defs">
  <radialGradient id="radGradDark" cx="7.5006" cy="9.4015" r="9.7854" gradientTransform="matrix(1.6107 1.0797 -.58681 .87543 .93614 -7.022)" gradientUnits="userSpaceOnUse">
   <stop id="dark-1" stop-color="#222" offset="0"/>
   <stop id="dark-2" stop-color="#444" offset="1"/>
  </radialGradient>
  <radialGradient id="radGradRed" cx="14.501" cy="10.029" r="2.6711" gradientTransform="matrix(1.3827 .62837 -.44627 .98203 -1.0744 -8.9965)" gradientUnits="userSpaceOnUse">
   <stop id="red-1" stop-color="#a00" offset="0"/>
   <stop id="red-2" stop-color="#c22" offset="1"/>
  </radialGradient>
 </defs>
 <g id="layer1">
  <rect id="background" x="4.5766e-15" width="25.4" height="25.4" ry="5.1528" fill="#fff" stroke-linecap="round" stroke-linejoin="round" stroke-width="13.229"/>
  <path id="hexagon" d="m17.758 12.437-1.3326 0.77071a0.94166 0.94328 0 0 1-0.94166 0l-1.3326-0.77071a0.94166 0.94328 0 0 1-0.47083-0.8169v-1.5414a0.94166 0.94328 0 0 1 0.47083-0.8169l1.3326-0.77071a0.94166 0.94328 0 0 1 0.94166 0l1.3326 0.77071a0.94166 0.94328 0 0 1 0.47083 0.8169v1.5414a0.94166 0.94328 0 0 1-0.47083 0.8169z" fill="url(#radGradRed)" stroke="#000" stroke-linecap="round" stroke-linejoin="round" stroke-width=".79375"/>
  <g id="text" fill="url(#radGradDark)" stroke="#000" stroke-width=".1">
   <g id="shebang" aria-label="#!">
    <path id="path904" d="m13.767 4.8761v-1.6506h-0.88032l0.26724-2.0593h-2.0593l-0.26724 2.0593h-1.572l0.26724-2.0593h-2.0593l-0.26724 2.0593h-1.1318v1.6506h0.91175l-0.393 3.0182h-1.1004v1.6506h0.88031l-0.29868 2.2479h2.0593l0.29868-2.2479h1.572l-0.29868 2.2479h2.0593l0.29868-2.2479h1.1318v-1.6506h-0.91175l0.393-3.0182zm-3.5527 3.0182h-1.572l0.393-3.0182h1.572z"/>
    <path id="path906" d="m17.209 0.89898h-2.6409l0.3144 6.8853s0.66885-0.28785 1.0123-0.28746c0.33937 3.865e-4 0.99985 0.28746 0.99985 0.28746z"/>
   </g>
   <g id="rsc" aria-label="rsc">
    <path id="path910" d="m7.5809 12.875c-0.92632 0-1.716 0.66817-2.0804 1.7919l-0.2126-1.5641h-2.0804v8.0636h2.3993v-4.0546c0.27334-1.1997 0.68335-1.9134 1.6704-1.9134 0.25816 0 0.47075 0.04556 0.72891 0.1063l0.37964-2.3234c-0.27334-0.075928-0.50112-0.1063-0.80484-0.1063z"/>
    <path id="path912" d="m11.954 12.845c-2.0349 0-3.2953 1.0782-3.2953 2.4601 0 1.2452 0.78965 2.0652 2.3841 2.5208 1.4578 0.41001 1.7008 0.57705 1.7008 1.1237 0 0.48594-0.44038 0.75928-1.1693 0.75928-0.78965 0-1.5337-0.3189-2.1412-0.78965l-1.1693 1.306c0.78965 0.71372 1.9741 1.1997 3.3712 1.1997 2.0045 0 3.5838-0.98706 3.5838-2.6575 0-1.4426-0.89595-2.1108-2.4904-2.5664-1.4426-0.4252-1.6552-0.60742-1.6552-1.0326 0-0.36445 0.3189-0.60742 0.97188-0.60742 0.69854 0 1.3667 0.22778 1.9893 0.62261l0.88076-1.3515c-0.7441-0.60742-1.7919-0.98706-2.9612-0.98706z"/>
    <path id="path914" d="m19.896 12.845c-2.4145 0-3.9483 1.7919-3.9483 4.3583 0 2.5512 1.5186 4.2216 3.9938 4.2216 1.1085 0 1.9741-0.36446 2.7182-0.95669l-1.0478-1.4882c-0.57705 0.36445-0.97188 0.54668-1.5489 0.54668-0.95669 0-1.5945-0.54668-1.5945-2.3386 0-1.8071 0.59224-2.5056 1.6249-2.5056 0.54668 0 1.0174 0.18223 1.5337 0.57705l1.0326-1.4274c-0.77446-0.65298-1.64-0.98706-2.7638-0.98706z"/>
   </g>
  </g>
 </g>
</svg>
